# xmcd
#
# Track frame offsets:
#	150
#	19494
#	36377
#	49201
#	68244
#	84374
#	100202
#	114744
#	128927
#	145865
#	160539
#	175239
#	192613
#	205575
#	221488
#	222184
#	222854
#	223920
#	224792
#	225469
#	226304
#	227096
#	227902
#	228652
#	229410
#	230553
#	231449
#	232279
#	233066
#	233849
#	234714
#	235483
#	236296
#	237112
#	238179
#	238961
#	239782
#	240507
#	241247
#	241947
#	242729
#	243711
#	244555
#	245300
#	246037
#
# Disc length: 3287 seconds
#
# Revision: 2
# Processed by: cddbd v1.5.2PL0 Copyright (c) Steve Scherf et al.
# Submitted via: audiograbber 1.83.01
#
DISCID=9b0cd52d
DTITLE=Various Artist - CDX Volume 618 (June 22, 2015)
DYEAR=2015
DGENRE=Country
TTITLE0=Billy Currington - Drinkin' Town With A Football Problem
TTITLE1=Keith Urban - John Cougar, John Deere, John 3:16
TTITLE2=Jake Owen - Real Life [Album Edit]
TTITLE3=Dierks Bentley - Riser
TTITLE4=Tyler Farr - Withdrawals [Radio Edit]
TTITLE5=Sammy Kershaw - Grillin' and Chillin'
TTITLE6=Sawyer Brown - We Got The Night
TTITLE7=Brandon Holland - Blame It On The Whiskey
TTITLE8=Levi Riggs - Nothin' I Don't Love
TTITLE9=Allie Louise - Perfect Storm
TTITLE10=Blair Mathews - Ride 
TTITLE11=Brian Collins - Shine A Little Love 
TTITLE12=McKenna Faith - Somethin' Somethin'
TTITLE13=Clair Petrie - Somewhere Off The Map
TTITLE14=Philip Claypool - Radio Liner - Hometown Country
TTITLE15=Philip Claypool - Radio Liner - Kickin' Country
TTITLE16=Philip Claypool - Radio Liner - My New Single
TTITLE17=Philip Claypool - Radio Liner - Super Country
TTITLE18=Philip Claypool - Radio Liner - The Best in Country Music
TTITLE19=Philip Claypool - Radio Liner - Today's Best Country
TTITLE20=Philip Claypool - Radio Liner - Today's Hot Country Music
TTITLE21=Josh Goodlett - Radio Liner - Hometown Country
TTITLE22=Josh Goodlett - Radio Liner - Kickin' Country
TTITLE23=Josh Goodlett - Radio Liner - More of the Country You Love
TTITLE24=Josh Goodlett - Radio Liner - My New Single
TTITLE25=Josh Goodlett - Radio Liner - Super Country
TTITLE26=Josh Goodlett - Radio Liner - The Best in Country
TTITLE27=Josh Goodlett - Radio Liner - Today's Best Country
TTITLE28=Josh Goodlett - Radio Liner - Today's Hot Country Music
TTITLE29=Joe Schmidt - Radio Liner - Greatest Hits of All Time
TTITLE30=Joe Schmidt - Radio Liner - Hometown Country
TTITLE31=Joe Schmidt - Radio Liner - Kickin' Country
TTITLE32=Joe Schmidt - Radio Liner - More of the Country You Love Next
TTITLE33=Joe Schmidt - Radio Liner - My New Single
TTITLE34=Joe Schmidt - Radio Liner - The Best in Country Music
TTITLE35=Joe Schmidt - Radio Liner - Today's Best Country
TTITLE36=Joe Schmidt - Radio Liner - Today's Hot Country Music
TTITLE37=Jon Wolfe - Radio Liner - Hometown Country
TTITLE38=Jon Wolfe - Radio Liner - Kickin' Country
TTITLE39=Jon Wolfe - Radio Liner - More of the Country You Love Next
TTITLE40=Jon Wolfe - Radio Liner - My New Single
TTITLE41=Jon Wolfe - Radio Liner - Super Country
TTITLE42=Jon Wolfe - Radio Liner - The Best in Country Music
TTITLE43=Jon Wolfe - Radio Liner - Today's Best Country
TTITLE44=Jon Wolfe - Radio Liner - Today's Hot Country Music
EXTD=
EXTT0=
EXTT1=
EXTT2=
EXTT3=
EXTT4=
EXTT5=
EXTT6=
EXTT7=
EXTT8=
EXTT9=
EXTT10=
EXTT11=
EXTT12=
EXTT13=
EXTT14=
EXTT15=
EXTT16=
EXTT17=
EXTT18=
EXTT19=
EXTT20=
EXTT21=
EXTT22=
EXTT23=
EXTT24=
EXTT25=
EXTT26=
EXTT27=
EXTT28=
EXTT29=
EXTT30=
EXTT31=
EXTT32=
EXTT33=
EXTT34=
EXTT35=
EXTT36=
EXTT37=
EXTT38=
EXTT39=
EXTT40=
EXTT41=
EXTT42=
EXTT43=
EXTT44=
PLAYORDER=
